# xmcd
#
# Track frame offsets: 
#        150
#        17155
#        28376
#        45611
#        59273
#        68342
#        77674
#        96404
#        112441
#        125531
#        139092
#        155885
#        167907
#        186803
#        200678
#        215558
#        231140
#        244848
#        263347
#        274548
#
# Disc length: 3917 seconds
#
# Revision: 0
# Processed by: cddbd v1.5.2PL0 Copyright (c) Steve Scherf et al.
# Submitted via: ExactAudioCopy v0.95b3
#
DISCID=290f4b14
DTITLE=Various Artist - PureBrazil [2] - ElectricSsambaGroove [2]
DYEAR=2005
DGENRE=Samba
TTITLE0=Jorge Ben - Ponta-De-Lanca Africano (Umbabarauma)
TTITLE1=Joao Donato - Bananeira
TTITLE2=Gal Costa - Barato Total
TTITLE3=Erasmo Carlos - O Comilao
TTITLE4=Jorge Ben - O Namorado Da Viuva
TTITLE5=Chico Buarque - Jorge Maravilha
TTITLE6=Cassia Eller - Meu Mundo Ficaria Completo (Com Voce)
TTITLE7=Gal Costa, Caetano Veloso - Que Pena (Ele Ja Nao Gosta Mais De
TTITLE7=Mim)
TTITLE8=Jorge Ben - Se Segura, Malandro
TTITLE9=Luis Vagner - Fazer Molho E Na Cozinha
TTITLE10=Wilson Simonal - Dingue Li Bangue
TTITLE11=Elis Regina - Fechado Pra Balanco
TTITLE12=Jorge Ben - Oba, La Vem Ela
TTITLE13=Luiz Melodia - Felino
TTITLE14=Caetano Veloso - Jeito De Corpo
TTITLE15=Wanderlea - Krioula
TTITLE16=Jorge Ben - Rita Jeep
TTITLE17=Paula Lima, Rappin Hood - Quatro
TTITLE18=Trio Mocoto - Coqueiro Verde
TTITLE19=Erlon Chaves E Banda Veneno - Eu Tambem Quero Mocoto
EXTD=
EXTT0=
EXTT1=
EXTT2=
EXTT3=
EXTT4=
EXTT5=
EXTT6=
EXTT7=
EXTT8=
EXTT9=
EXTT10=
EXTT11=
EXTT12=
EXTT13=
EXTT14=
EXTT15=
EXTT16=
EXTT17=
EXTT18=
EXTT19=
PLAYORDER=
